# xmcd
#
# Track frame offsets:
#	150
#	17356
#	30786
#	54456
#	71765
#	85056
#	102203
#	120050
#	131618
#	146457
#	157992
#	176913
#
# Disc length: 2555 seconds
#
# Revision: 1
# Processed by: cddbd v1.5.1PL0 Copyright (c) Steve Scherf et al.
# Submitted via: audiograbber 1.83.01
#
DISCID=8909f90c
DTITLE=Leo Everett - The Yodeler
DYEAR=1900
DGENRE=
TTITLE0=The Yodeler
TTITLE1=The Bend Of The River
TTITLE2=The Strawberry Roan
TTITLE3=God Loves Yodelers Too
TTITLE4=Big City Livin'
TTITLE5=Yo-Ho Valley
TTITLE6=Let's Hear Skinny Sing
TTITLE7=Tumbling Tumbleweeds
TTITLE8=The Bad Brahma Bull
TTITLE9=Chime Bells
TTITLE10=The Blizzard
TTITLE11=Tyin' Knots In The Devil's Tail
EXTD=
EXTT0=
EXTT1=
EXTT2=
EXTT3=
EXTT4=
EXTT5=
EXTT6=
EXTT7=
EXTT8=
EXTT9=
EXTT10=
EXTT11=
PLAYORDER=
